<svg width="60" height="59" viewBox="0 0 60 59" fill="none" xmlns="http://www.w3.org/2000/svg">
<path fill-rule="evenodd" clip-rule="evenodd" d="M29.7503 0C46.1705 0 59.5006 13.218 59.5006 29.5C59.5006 45.782 46.1705 59 29.7503 59C13.3301 59 0 45.782 0 29.5C0 13.218 13.3301 0 29.7503 0Z" fill="black"/>
<path fill-rule="evenodd" clip-rule="evenodd" d="M29.7495 22.7686C33.4959 22.7686 36.5381 25.7852 36.5381 29.5C36.5381 33.2149 33.4959 36.2315 29.7495 36.2315C26.0032 36.2315 22.9609 33.2149 22.9609 29.5C22.9609 25.7852 26.0032 22.7686 29.7495 22.7686Z" fill="#F01F01"/>
<path fill-rule="evenodd" clip-rule="evenodd" d="M7.50716 17.7343C8.63638 15.616 10.1083 13.6558 11.9284 11.859C16.7242 7.11404 22.6467 4.74023 29.6957 4.74023C36.742 4.74023 42.6803 7.11404 47.5107 11.8617C50.2474 14.5542 52.211 17.6052 53.396 21.0117C54.2754 23.6042 54.7165 26.4048 54.7165 29.4109C54.7165 34.256 53.5713 38.5742 51.2837 42.3628C50.2554 44.0411 48.9987 45.6166 47.5107 47.0893C42.6803 51.8712 36.7446 54.2608 29.6957 54.2608C27.7375 54.2608 26.1565 53.6496 24.9476 52.4245C23.7413 51.1994 23.1356 49.6186 23.1356 47.6848C23.1356 45.751 23.7387 44.186 24.9476 42.9925C26.1539 41.799 27.7375 41.2036 29.6957 41.2036C30.4715 41.2036 31.2181 41.1377 31.9408 41.0086C34.2949 40.6055 36.3567 39.5121 38.1236 37.7311C40.4086 35.4285 41.5511 32.6542 41.5511 29.4109C41.5511 26.1677 40.4113 23.4093 38.1316 21.1408C35.8519 18.8698 33.0833 17.7343 29.8285 17.7343H7.50716ZM17.9491 51.5313C15.8156 50.4037 13.8388 48.9336 12.0187 47.121C7.19895 42.3207 4.78906 36.4164 4.78906 29.4109C4.78906 27.464 5.40814 25.8911 6.64098 24.6923C7.87648 23.4936 9.46802 22.8929 11.4182 22.8929C13.3685 22.8929 14.9441 23.4936 16.1477 24.6923C17.3088 25.8516 17.9093 27.3559 17.9491 29.2107C17.9491 29.2819 17.9465 29.353 17.9465 29.4241V51.5313H17.9491Z" fill="white" stroke="white" stroke-width="0.24" stroke-miterlimit="10" stroke-linejoin="round"/>
</svg>
