<svg width="218" height="33" viewBox="0 0 218 33" fill="none" xmlns="http://www.w3.org/2000/svg">
<path d="M201.82 0.639648C192.893 0.639648 185.641 7.88708 185.641 16.8194C185.641 25.7472 192.888 32.9992 201.82 32.9992C210.753 32.9992 218 25.7518 218 16.8194C217.996 7.8917 210.748 0.639648 201.82 0.639648ZM201.82 27.4921C195.93 27.4921 191.148 22.7097 191.148 16.8194C191.148 10.9292 195.93 6.14677 201.82 6.14677C207.711 6.14677 212.493 10.9292 212.493 16.8194C212.493 22.7097 207.711 27.4921 201.82 27.4921Z" fill="white"/>
<path d="M178.414 14.5024H178.409L164.025 14.5439C162.631 14.5485 161.505 15.6795 161.509 17.0736C161.514 18.4631 162.64 19.5894 164.034 19.5894H164.043L175.524 19.5571C174.721 22.5761 172.671 25.1612 169.814 26.6153C164.344 29.3988 157.627 27.2154 154.843 21.7452C152.06 16.275 154.243 9.55842 159.713 6.77485C163.365 4.91914 167.727 5.20996 171.097 7.54114C172.242 8.33513 173.816 8.04431 174.605 6.89949C175.395 5.75468 175.109 4.18055 173.964 3.39118C169.061 0.00750697 162.723 -0.41718 157.424 2.2833C149.475 6.3317 146.299 16.0903 150.343 24.0394C153.195 29.6481 158.892 32.8795 164.787 32.8795C167.252 32.8795 169.754 32.3163 172.099 31.1207C177.403 28.4202 180.786 23.047 180.934 17.0967C180.953 16.4135 180.694 15.758 180.214 15.2687C179.743 14.7747 179.092 14.5024 178.414 14.5024Z" fill="white"/>
<path d="M141.318 27.8293H120.91C118.523 27.8293 116.585 25.8904 116.585 23.5039V19.22H134.805C136.199 19.22 137.33 18.0891 137.33 16.695C137.33 15.3009 136.199 14.1699 134.805 14.1699H114.064C113.976 14.1699 113.889 14.1745 113.806 14.1838C112.532 14.313 111.539 15.3886 111.539 16.695C111.539 16.6996 111.539 16.6996 111.539 16.7042V23.5039C111.539 28.6694 115.74 32.8748 120.91 32.8748H141.318C142.712 32.8748 143.843 31.7438 143.843 30.3497C143.843 28.9556 142.712 27.8293 141.318 27.8293Z" fill="white"/>
<path d="M141.318 0.515625H114.064C112.67 0.515625 111.539 1.64659 111.539 3.04069C111.539 4.43478 112.67 5.56575 114.064 5.56575H141.318C142.712 5.56575 143.843 4.43478 143.843 3.04069C143.843 1.64659 142.712 0.515625 141.318 0.515625Z" fill="white"/>
<path d="M102.821 0.529207H98.3253C98.0899 0.519975 97.8545 0.510742 97.6098 0.510742H83.812C83.572 0.510742 83.3319 0.515359 83.0965 0.529207H77.6632C76.403 0.529207 75.3828 1.66018 75.3828 3.05427C75.3828 4.44836 76.403 5.57933 77.6632 5.57933H84.5183C84.9937 5.57933 85.3953 5.5701 85.7416 5.56086H86.7294C87.8373 5.62087 87.7265 6.06403 87.7265 8.33058L87.7404 30.3406C87.7404 31.7347 88.7652 32.8611 90.0208 32.8611H90.0254C90.0993 32.8611 90.1731 32.8564 90.2424 32.8472C90.3162 32.8564 90.3855 32.8611 90.4593 32.8611H90.4639C91.7242 32.8611 92.7443 31.7347 92.7443 30.3406L92.7582 8.33058C92.7582 6.06403 92.6474 5.62549 93.7553 5.56086H94.7431C95.0894 5.5701 95.491 5.57933 95.9664 5.57933H102.821C104.082 5.57933 105.102 4.44836 105.102 3.05427C105.107 1.66018 104.082 0.529207 102.821 0.529207Z" fill="white"/>
<path d="M66.7095 0.515359C65.3154 0.515359 64.1844 1.47553 64.1844 2.66189V16.6997C64.1844 22.8393 59.1897 27.8294 53.0548 27.8294C46.9199 27.8294 41.9251 22.8347 41.9251 16.6997V3.0358C41.9251 1.64171 40.7942 0.510742 39.4001 0.510742C38.006 0.510742 36.875 1.64171 36.875 3.0358V16.6951C36.875 25.6182 44.1317 32.8749 53.0548 32.8749C61.9733 32.8749 69.2253 25.6229 69.2346 16.709V2.65727C69.2299 1.47553 68.1036 0.515359 66.7095 0.515359Z" fill="white"/>
<path d="M32.3042 11.2298C32.3042 5.32109 27.4987 0.515625 21.59 0.515625H2.52506C1.4818 0.515625 0.581638 1.15266 0.198493 2.05743C0.0692396 2.35749 0 2.68985 0 3.04069V30.3501C0 31.7442 1.13097 32.8752 2.52506 32.8752C3.91915 32.8752 5.05012 31.7442 5.05012 30.3501V5.56113H21.59C24.7151 5.56113 27.2586 8.10465 27.2586 11.2298C27.2586 14.355 24.7151 16.8985 21.59 16.8985H10.7927C9.39858 16.8985 8.26761 18.0295 8.26761 19.4236C8.26761 20.8177 9.39858 21.9486 10.7927 21.9486H11.9006C11.9052 21.9486 11.9052 21.9486 11.9098 21.9486H18.8526C23.4872 21.9486 27.2586 25.7201 27.2586 30.3547C27.2586 31.7488 28.3896 32.8798 29.7837 32.8798C31.1778 32.8798 32.3088 31.7488 32.3088 30.3547C32.3088 26.2602 30.4669 22.5903 27.5726 20.1206C30.4254 18.191 32.3042 14.9274 32.3042 11.2298Z" fill="white"/>
</svg>
